# xmcd CD database file
#
# Track frame offsets:
#	150
#	20478
#	45132
#	60172
#	85091
#	115399
#
# Disc length: 1944 seconds
#
# Revision: 0
# Processed by: cddbd v1.5.1PL2 Copyright (c) Steve Scherf et al.
# Submitted via: CDex 1.51
#
DISCID=39079606
DTITLE=Yasuyuki Takagi - YAZ
DYEAR=2003
DGENRE=Jazz
TTITLE0=China Town
TTITLE1=Fantasy
TTITLE2=Isn't She Lovely
TTITLE3=For The Love Of You
TTITLE4=What's Going On
TTITLE5=Don't You Worry 'Bout A Thing
EXTD=YEAR: 2003
EXTT0=
EXTT1=
EXTT2=
EXTT3=
EXTT4=
EXTT5=
PLAYORDER=
